<svg class="head_logo_svg" version="1.1" xmlns="http://www.w3.org/2000/svg" xmlns:xlink="http://www.w3.org/1999/xlink" x="0px" y="0px" viewBox="0 0 322.1 110.3" xml:space="preserve">
  <path fill="#009A96" d="M121.2,12.7h-6.5v-4h18.6l-1.4,4h-6v16.9h-4.6L121.2,12.7L121.2,12.7z"></path>
  <path fill="#009A96" d="M137.4,35.2H133V14.5h4.4V16h0.1c0.7-0.8,1.9-1.9,4.2-1.9c3.9,0,6.9,3.3,6.9,7.9c0,4.6-3,8-6.9,8 c-2.3,0-3.6-1.1-4.2-1.9h-0.1V35.2z M140.7,26.1c2,0,3.4-1.7,3.4-4c0-2.2-1.4-3.9-3.4-3.9s-3.4,1.7-3.4,3.9 C137.2,24.3,138.7,26.1,140.7,26.1z"></path>
  <path fill="#009A96" d="M150.5,24.9c0-2.4,2-4.9,6.7-4.9c0.7,0,1.7,0,2.5,0.2v-0.2c0-1.4-1.1-1.9-2.4-1.9c-1.1,0-2.4,0.4-3.5,1.1 l-2.6-2.6c1.7-1.6,4.2-2.3,6.3-2.3c4,0,6.6,2.2,6.6,5.9v9.6h-4.3v-1.5h-0.1c-0.8,1.3-2.2,1.9-4.1,1.9 C152.7,30,150.5,27.8,150.5,24.9z M159.8,23.9v-0.5c-0.6-0.1-1.3-0.2-1.9-0.2c-2,0-2.8,0.7-2.9,1.7c0,1,0.8,1.7,2.1,1.7 C158.3,26.6,159.8,25.8,159.8,23.9z"></path>
  <path fill="#009A96" d="M167.9,14.5h4.4v5.6h4.9v-5.6h4.4v15.1h-4.4v-5.7h-4.9v5.7h-4.4V14.5z"></path>
  <path fill="#009A96" d="M184.6,22.1c0-4.6,3-7.9,7.5-7.9c1.9,0,4,0.4,5.8,2.1L195,19c-0.7-0.7-1.6-1-2.7-1c-2,0-3.2,1.7-3.2,4 s1.2,4.1,3.2,4.1c1,0,2-0.3,2.7-1l2.8,2.8c-1.7,1.7-3.9,2.1-5.8,2.1C187.5,30,184.6,26.8,184.6,22.1z"></path>
  <path fill="#009A96" d="M200.2,14.5h13.2v15.1H209V18.3h-4.4v11.3h-4.4V14.5L200.2,14.5z"></path>
  <path fill="#009A96" d="M216.3,22.1c0-4.6,3.2-7.9,7.8-7.9c4.5,0,7.7,3.3,7.7,7.9c0,4.7-3.2,8-7.7,8C219.5,30,216.3,26.8,216.3,22.1 z M227.3,22.1c0-2.3-1.2-4-3.2-4c-2,0-3.2,1.7-3.2,4c0,2.3,1.2,4.1,3.2,4.1C226.1,26.1,227.3,24.3,227.3,22.1z"></path>
  <path fill="#009A96" d="M239.2,35.2h-4.4V14.5h4.4V16h0.1c0.7-0.8,1.9-1.9,4.2-1.9c4,0,6.9,3.3,6.9,7.9c0,4.6-3,8-6.9,8 c-2.3,0-3.6-1.1-4.2-1.9h-0.1V35.2z M242.4,26.1c2,0,3.4-1.7,3.4-4c0-2.2-1.4-3.9-3.4-3.9c-2,0-3.4,1.7-3.4,3.9
  C239,24.3,240.4,26.1,242.4,26.1z"></path>
  <path fill="#009A96" d="M256.3,18.3h-4.4v-3.8h13.6l-1.4,3.8h-3.4v11.3h-4.4V18.3z"></path>
  <path fill="#009A96" d="M267.4,14.5h4.4v5.6h4.9v-5.6h4.4v15.1h-4.4v-5.7h-4.9v5.7h-4.4V14.5z"></path>
  <path fill="#009A96" d="M289.4,14.5v4.3h2.9c3.3,0,6.1,2.4,6.1,5.4c0,3-2.8,5.4-6.1,5.4h-7.3V14.5H289.4z M291.9,26 c1.1,0,1.9-1,1.9-1.8s-0.7-1.8-1.9-1.8h-2.5V26L291.9,26L291.9,26z M300.1,14.5h4.3v15.1h-4.3V14.5z"></path>
  <path fill="#009A96" d="M307.4,22.1c0-4.6,3.1-7.9,7.5-7.9c4.1,0,7.3,2.5,7.3,8.3v1.1h-10c0.3,1.9,2,2.6,3.4,2.6 c1.4,0,2.6-0.7,3.1-1.4l2.8,2.8c-1.8,1.8-3.9,2.5-6.4,2.5C311.1,30,307.4,27.2,307.4,22.1z M317.6,20.4c-0.2-1.7-1.1-2.7-2.8-2.7 c-1.5,0-2.5,1.2-2.8,2.7H317.6z"></path>
  <path fill="#009A96" d="M115.7,43.9h4.4v8.5h0.1l5.8-8.5h3.8V59h-4.4v-8.5h-0.1l-5.8,8.5h-3.8V43.9z"></path>
  <path fill="#009A96" d="M133.7,43.9h4.4v5.6h4.9v-5.6h4.4V59H143v-5.7h-4.9V59h-4.4V43.9z"></path>
  <path fill="#009A96" d="M151.4,43.9h4.4v5.6h4.9v-5.6h4.4V59h-4.4v-5.7h-4.9V59h-4.4V43.9z"></path>
  <path fill="#009A96" d="M168,51.4c0-4.6,3.2-7.9,7.8-7.9c4.5,0,7.7,3.3,7.7,7.9c0,4.7-3.2,8-7.7,8C171.2,59.4,168,56.1,168,51.4z M178.9,51.4c0-2.3-1.2-4-3.2-4c-2,0-3.2,1.7-3.2,4c0,2.3,1.2,4.1,3.2,4.1C177.7,55.5,178.9,53.7,178.9,51.4z"></path>
  <path fill="#009A96" d="M186.5,59V43.9h7.8c3,0,5.5,1.1,5.5,4.1c0,1.4-1.1,2.6-2.2,2.9v0.1c1.8,0.5,2.9,1.7,2.9,3.6 c0,2.2-1.6,4.5-5.5,4.5L186.5,59L186.5,59z M193.3,50.2c1.1,0,2-0.4,2-1.6s-0.9-1.5-2-1.5h-2.5v3.1L193.3,50.2L193.3,50.2z M194.1,55.8c1.2,0,1.6-0.6,1.6-1.3c0-0.7-0.4-1.4-1.6-1.4h-3.3v2.8L194.1,55.8L194.1,55.8z"></path>
  <path fill="#009A96" d="M202.3,54.3c0-2.4,2-4.9,6.7-4.9c0.7,0,1.7,0,2.5,0.2v-0.2c0-1.4-1.1-1.9-2.4-1.9c-1.1,0-2.4,0.4-3.5,1.1 l-2.6-2.6c1.7-1.6,4.2-2.3,6.3-2.3c4,0,6.6,2.2,6.6,5.9V59h-4.3v-1.5h-0.1c-0.8,1.3-2.2,1.9-4.1,1.9 C204.5,59.4,202.3,57.2,202.3,54.3z M211.5,53.2v-0.5c-0.6-0.1-1.3-0.2-1.9-0.2c-2,0-2.8,0.7-2.9,1.7c0,1,0.8,1.7,2.1,1.7 C210.1,55.9,211.5,55.2,211.5,53.2z"></path>
  <path fill="#009A96" d="M231.8,59h-12.2V43.9h4.4v11.3h4.6V43.9h4.4v11.3h2.9v7.9h-4.1L231.8,59L231.8,59z"></path>
  <path fill="#009A96" d="M238.5,43.9h4.4v8.5h0.1l5.8-8.5h3.8V59h-4.4v-8.5h-0.1l-5.8,8.5h-3.8V43.9z"></path>
  <path fill="#009A96" d="M256.5,43.9h4.4v8.5h0.1l5.8-8.5h3.8V59h-4.4v-8.5H266l-5.8,8.5h-3.8V43.9z"></path>
  <path fill="#009A96" d="M114.6,89l6.9-21h3.6l4.8,14.2h0.1l4.8-14.2h3.6l6.9,21h-5.1l-3.7-12.2h-0.1L132,89h-4.2l-4.4-12.2h-0.1 L119.7,89H114.6z"></path>
  <path fill="#009A96" d="M146.3,81.4c0-4.6,3.2-7.9,7.8-7.9c4.5,0,7.7,3.3,7.7,7.9c0,4.7-3.2,8-7.7,8 C149.4,89.3,146.3,86.1,146.3,81.4z M157.2,81.4c0-2.3-1.2-4-3.2-4c-2,0-3.2,1.6-3.2,4c0,2.3,1.2,4.1,3.2,4.1 S157.2,83.6,157.2,81.4z"></path>
  <path fill="#009A96" d="M163.8,81.4c0-4.6,3-7.9,7.5-7.9c1.9,0,4,0.4,5.8,2.1l-2.8,2.8c-0.7-0.7-1.6-1-2.7-1c-2,0-3.2,1.7-3.2,4 s1.2,4.1,3.2,4.1c1,0,2-0.3,2.7-1l2.8,2.8c-1.7,1.7-3.9,2.1-5.8,2.1C166.7,89.3,163.8,86.1,163.8,81.4z"></path>
  <path fill="#009A96" d="M179.4,73.8h4.4v5.7h0.7l3.6-5.7h5l-4.9,7.5l5.5,7.6h-5.3l-4-5.8h-0.5V89h-4.4V73.8z"></path>
  <path fill="#009A96" d="M195.4,89V73.8h7.8c3,0,5.5,1.1,5.5,4.1c0,1.4-1.1,2.6-2.2,2.9v0.1c1.8,0.5,2.9,1.7,2.9,3.6 c0,2.2-1.6,4.5-5.5,4.5L195.4,89L195.4,89z M202.3,80.1c1.1,0,2-0.4,2-1.6s-0.9-1.5-2-1.5h-2.5v3.1L202.3,80.1L202.3,80.1z M203.1,85.8c1.2,0,1.6-0.6,1.6-1.3c0-0.7-0.4-1.4-1.6-1.4h-3.3v2.8L203.1,85.8L203.1,85.8z"></path>
  <path fill="#009A96" d="M216.8,73.8v4.3h2.9c3.3,0,6.1,2.4,6.1,5.4c0,3-2.8,5.4-6.1,5.4h-7.3V73.8C212.4,73.8,216.8,73.8,216.8,73.8 z M219.2,85.3c1.1,0,1.9-1,1.9-1.8s-0.7-1.8-1.9-1.8h-2.5v3.6L219.2,85.3L219.2,85.3z M227.4,73.8h4.3V89h-4.3V73.8z"></path>
  <polygon fill="#009A96" points="34.4,56.8 34.4,42.2 26.5,42.2 26.5,56.8 26.5,64.7 34.4,64.7 49,64.7 49,56.8     "></polygon>
  <polygon fill="#009A96" points="56.9,26.4 42.3,26.4 42.3,34.3 56.9,34.3 56.9,48.9 64.7,48.9 64.7,34.3 64.7,26.4     "></polygon>
  <path fill="#009A96" d="M91.3,45.7C91.3,20.5,70.9,0,45.7,0C20.5,0,0,20.5,0,45.7c0,12.6,5.1,24,13.3,32.2C14,78.6,15,79,16,79 c2,0,3.7-1.7,3.7-3.7c0-1-0.4-2-1.1-2.7c-6.9-6.9-11.1-16.4-11.1-27c0-21.1,17.2-38.2,38.3-38.2c21.1,0,38.2,17.2,38.2,38.2 c0,10.6-4.3,20.1-11.2,27L40.4,105l5.3,5.3L78,77.9C86.2,69.7,91.3,58.3,91.3,45.7"></path>
</svg>